<svg width="32" height="32" viewBox="0 0 32 32" fill="none" xmlns="http://www.w3.org/2000/svg">
<rect width="32" height="32" rx="7" fill="#FF5518"/>
<path fill-rule="evenodd" clip-rule="evenodd" d="M14.9245 5.46606C15.5435 4.92998 16.4685 4.94904 17.0658 5.51008C17.0722 5.51569 17.0782 5.52096 17.0839 5.52737C18.7661 7.20807 19.5793 9.68092 19.8933 11.5612L19.9129 11.5526C21.761 10.742 24.0552 10.7603 25.9137 11.0574C25.9177 11.0581 25.9224 11.0589 25.9271 11.0597C26.443 11.1515 26.8817 11.4897 27.1023 11.9645C27.3212 12.4369 27.2985 12.9852 27.041 13.436C25.6486 15.9262 24.4023 17.3129 23.0493 18.0148L23.0171 18.0306C24.548 19.8593 25.2018 21.7011 24.9925 23.5314C24.9917 23.5419 24.9894 23.5517 24.9878 23.5613C24.8653 24.3694 24.1547 24.9558 23.3386 24.9236C23.3274 24.9236 23.3168 24.9228 23.3064 24.922C21.426 24.7727 18.823 24.0014 16.8009 22.6251V27.097C16.8009 27.5415 16.4403 27.9018 15.9959 27.902C15.5514 27.902 15.191 27.5416 15.191 27.097V22.596C13.1792 23.9357 10.5883 24.7112 8.71225 24.8913C8.70342 24.8921 8.69514 24.8937 8.68631 24.8945C7.86058 24.9466 7.132 24.3586 7.00806 23.5409C7.00726 23.5329 7.00651 23.5245 7.00491 23.5165C6.78853 21.708 7.44198 19.8864 8.92449 18.0722L8.89619 18.0596C7.55115 17.3899 6.2868 15.9875 4.89668 13.3762C4.65616 12.9353 4.63649 12.4066 4.84401 11.9488C5.05327 11.4868 5.46842 11.1511 5.96416 11.044C5.96899 11.0424 5.97505 11.0409 5.97988 11.0401C7.82795 10.6787 10.1348 10.6391 11.9957 11.4826L12.02 11.4944L12.0216 11.4724C12.243 9.57765 13.0922 7.14228 14.908 5.481C14.9136 5.47619 14.9189 5.47087 14.9245 5.46606ZM15.9716 6.69075C14.4842 8.06546 13.8088 10.0783 13.6228 11.6422C13.5818 12.1718 13.2776 12.6477 12.8132 12.9085C12.3488 13.1692 11.786 13.1807 11.3047 12.9368C9.75858 12.2464 7.84877 12.3176 6.31553 12.6146L6.3171 12.6185C7.48003 14.8026 8.46843 16.0387 9.5895 16.6054C10.0402 16.7994 10.3766 17.1917 10.499 17.669C10.6245 18.1576 10.5096 18.6778 10.1893 19.0682C9.02863 20.4832 8.4445 21.8776 8.59984 23.2854C10.4713 23.097 13.133 22.2564 14.9481 20.7802C15.0249 20.7148 15.1062 20.6574 15.191 20.6089V17.9598H12.6756C12.2312 17.9597 11.8707 17.5993 11.8707 17.1549C11.8707 16.7104 12.2312 16.3501 12.6756 16.3499H15.191V13.5963C15.1911 13.1519 15.5515 12.7914 15.9959 12.7914C16.4403 12.7916 16.8008 13.152 16.8009 13.5963V16.3499H19.3226C19.7671 16.3499 20.1275 16.7103 20.1275 17.1549C20.1274 17.5994 19.7671 17.9598 19.3226 17.9598H16.8009V20.6214C16.888 20.6726 16.9721 20.7326 17.0508 20.8014C18.8676 22.3202 21.531 23.1584 23.396 23.3137C23.548 21.8875 22.968 20.4747 21.772 19.0493C21.7704 19.0477 21.7689 19.047 21.7672 19.0454C21.4487 18.6598 21.3291 18.1464 21.4434 17.6595C21.5561 17.1822 21.8816 16.7825 22.3356 16.5708C23.4721 15.9703 24.4643 14.7452 25.6363 12.6491L25.6394 12.6436C24.0707 12.3949 22.1363 12.3409 20.5764 13.0186L20.4089 13.0901C19.9947 13.2373 19.5337 13.2074 19.1386 12.9997C18.6855 12.7623 18.3747 12.3217 18.3015 11.8057C18.0334 10.2145 17.3816 8.11782 15.9716 6.69075Z" fill="white"/>
</svg>
